HIERARCHY
ROOT Hips
{
	OFFSET 0.000000 0.000000 0.000000 
	CHANNELS 6 Xposition Yposition Zposition Yrotation Zrotation Xrotation 
	JOINT Lumbar
	{
		OFFSET 0.000000 0.000000 0.000000 
		CHANNELS 3 Zrotation Xrotation Yrotation
		JOINT Neck
		{
			OFFSET 0.000000 0.445665 0.000000 
			CHANNELS 3 Zrotation Xrotation Yrotation
			End Site
			{
				OFFSET 0.000000 0.227535 0.000000 
			}
		}
		JOINT RightShoulder
		{
			OFFSET 0.019635 0.377685 0.194865 
			CHANNELS 3 Zrotation Xrotation Yrotation
			JOINT RightElbow
			{
				OFFSET 0.000000 -0.243375 0.000000 
				CHANNELS 2 Zrotation Yrotation
				JOINT RightWrist
				{
					OFFSET 0.000000 -0.264825 0.000000 
					CHANNELS 2 Zrotation Xrotation
					End Site
					{
						OFFSET 0.006600 -0.176220 0.000990 
					}
				}
			}
		}
		JOINT LeftShoulder
		{
			OFFSET 0.019635 0.377685 -0.194865 
			CHANNELS 3 Zrotation Xrotation Yrotation
			JOINT LeftElbow
			{
				OFFSET 0.000000 -0.243375 0.000000 
				CHANNELS 2 Zrotation Yrotation
				JOINT LeftWrist
				{
					OFFSET 0.000000 -0.264825 0.000000 
					CHANNELS 2 Zrotation Xrotation
					End Site
					{
						OFFSET 0.006600 -0.176220 -0.000990 
					}
				}
			}
		}
	}
	JOINT RightHip
	{
		OFFSET 0.052140 -0.069960 0.075570 
		CHANNELS 3 Zrotation Xrotation Yrotation
		JOINT RightKnee
		{
			OFFSET 0.000000 -0.402270 0.000000 
			CHANNELS 1 Zrotation
			JOINT RightAnkle
			{
				OFFSET 0.000000 -0.404085 0.000000 
				CHANNELS 3 Zrotation Xrotation Yrotation
				End Site
				{
					OFFSET 0.204105 -0.089430 0.008415 
				}
			}
		}
	}
	JOINT LeftHip
	{
		OFFSET 0.052140 -0.069960 -0.075570 
		CHANNELS 3 Zrotation Xrotation Yrotation
		JOINT LeftKnee
		{
			OFFSET 0.000000 -0.402270 0.000000 
			CHANNELS 1 Zrotation
			JOINT LeftAnkle
			{
				OFFSET 0.000000 -0.404085 0.000000 
				CHANNELS 3 Zrotation Xrotation Yrotation
				End Site
				{
					OFFSET 0.204105 -0.089430 -0.008415 
				}
			}
		}
	}
}
MOTION
Frames: 10
Frame Time: 0.02
0.64562 -0.96834 0.10249 -162.90045 45.63949 -17.10278 27.99752 5.85619 -15.3198 -52.36714 9.42578 -0.83079 -64.40045 11.40171 -41.21918 137.62444 163.80857 -79.69656 -22.97555 -64.40043 -11.40157 69.10551 137.62442 -41.22624 78.85348 7.74682 79.32067 7.21044 -29.42995 -57.97896 -19.76605 -3.3423 -3.04802 46.93541 -6.98747 -2.61281 -0.40076 -51.94154 -22.61967 5.51071
0.64587 -0.96815 0.10275 -162.77713 45.86644 -17.36396 27.62461 5.55441 -15.3993 -52.26668 9.29485 -0.83079 -64.40045 11.4022 -40.81256 137.62445 163.80858 -79.70061 -22.97556 -64.40041 -11.4015 69.67084 137.62439 -42.96698 80.0677 9.11007 78.84605 7.33474 -29.49102 -57.64588 -19.82157 -3.34121 -3.05048 46.65722 -6.87047 -2.48536 -0.39828 -51.92977 -22.51993 5.51733
0.64609 -0.96795 0.10291 -162.6195 46.12277 -17.62485 27.22286 5.21082 -15.52222 -52.17993 9.11776 -0.83079 -64.40045 11.40142 -40.51304 137.62445 163.80858 -79.69855 -22.97556 -64.40039 -11.40143 70.13003 137.62439 -45.31106 81.33121 10.88498 78.33822 7.4588 -29.5388 -57.23848 -19.89622 -3.33322 -3.04972 46.34482 -6.75849 -2.36022 -0.39579 -51.89786 -22.20041 5.45973
0.64633 -0.96776 0.10312 -162.48477 46.36286 -17.88006 26.83793 4.88765 -15.62475 -52.0844 8.96205 -0.83079 -64.40045 11.40175 -40.15362 137.62445 163.80859 -79.68917 -22.97556 -64.40038 -11.40137 70.59363 137.62436 -47.38279 82.5384 12.45967 77.85122 7.58232 -29.5953 -56.87109 -19.96027 -3.32856 -3.05046 46.05284 -6.64222 -2.28526 -0.39366 -51.86682 -21.9389 5.42701
0.64657 -0.96755 0.1033 -162.31933 46.6165 -18.15949 26.43502 4.55787 -15.7309 -52.00031 8.80354 -0.83079 -64.40045 11.40372 -39.83558 137.62445 163.80859 -79.72233 -22.97557 -64.40036 -11.40129 71.25213 137.62434 -49.45554 83.89114 14.0925 77.33654 7.70978 -29.64053 -56.47475 -20.0319 -3.3232 -3.05111 45.73905 -6.53371 -2.01272 -0.39013 -51.86676 -21.83542 5.41109
0.64681 -0.96737 0.10351 -162.20986 46.84837 -18.38836 26.06393 4.23229 -15.83931 -51.89531 8.64048 -0.83079 -64.40045 11.39708 -39.45771 137.62445 163.80859 -79.66552 -22.97557 -64.40034 -11.40124 71.47812 137.62432 -51.66307 84.95201 15.69655 76.87295 7.82862 -29.70598 -56.12192 -20.09255 -3.31768 -3.05119 45.46307 -6.41052 -2.13894 -0.38943 -51.80008 -21.36457 5.34659
0.64708 -0.96729 0.10384 -162.26095 47.01278 -18.47923 25.78382 3.92719 -15.94542 -51.73013 8.474 -0.83079 -64.40045 11.40807 -38.90581 137.62445 163.80859 -79.36173 -22.97557 -64.40034 -11.40129 70.50551 137.62431 -54.12972 85.18837 17.17526 76.55876 7.92234 -29.83169 -55.90931 -20.11755 -3.31277 -3.05008 45.29963 -6.24532 -3.43982 -0.397 -51.54055 -19.84991 5.14937
0.64736 -0.96723 0.1042 -162.37007 47.15403 -18.51882 25.53791 3.62813 -16.05174 -51.54313 8.30502 -0.83079 -64.40045 11.40226 -38.28809 137.62445 163.8086 -78.96804 -22.97557 -64.40035 -11.40137 69.10542 137.62431 -56.70219 85.12999 18.60109 76.29765 8.00742 -29.97806 -55.74306 -20.13123 -3.30814 -3.04862 45.17574 -6.06533 -5.12506 -0.4073 -51.21785 -17.99089 4.90795
0.64763 -0.96714 0.10453 -162.454 47.30591 -18.58116 25.27903 3.32722 -16.15657 -51.36551 8.13878 -0.83079 -64.40045 11.37784 -37.68985 137.62445 163.80859 -78.61504 -22.97557 -64.40035 -11.40143 67.91872 137.62431 -59.20505 85.21049 20.01524 76.0125 8.09719 -30.11417 -55.55477 -20.15033 -3.3036 -3.04747 45.03394 -5.89237 -6.58581 -0.41604 -50.93326 -16.34476 4.69642
0.64792 -0.96715 0.10492 -162.53124 47.45874 -18.64654 25.00762 3.0209 -16.26907 -51.19086 7.96431 -0.83079 -64.40045 11.46622 -37.13817 137.62445 163.80861 -78.26085 -22.97558 -64.40036 -11.4015 66.64669 137.62431 -61.8272 85.27232 21.59364 75.72548 8.18385 -30.25329 -55.36804 -20.16809 -3.29737 -3.0453 44.89021 -5.71826 -8.2628 -0.42618 -50.60738 -14.44989 4.44212
